PathFileType	4	(X/Y/Z)	54_2_rein_59_p1_0-220.trc
DataRate	CameraRate	NumFrames	NumMarkers	Units	OrigDataRate	OrigDataStartFrame	OrigNumFrames
59.0	59.0	5	27	m	59.0	82	221
Frame#	Time	RHip			RKnee			RAnkle			RBigToe			RSmallToe			RHeel			LHip			LKnee			LAnkle			LBigToe			LSmallToe			LHeel			Neck			Head			Nose			RShoulder			RElbow			RWrist			RThumb			RIndex			RPinky			LShoulder			LElbow			LWrist			LThumb			LIndex			LPinky			
		X1	Y1	Z1	X2	Y2	Z2	X3	Y3	Z3	X4	Y4	Z4	X5	Y5	Z5	X6	Y6	Z6	X7	Y7	Z7	X8	Y8	Z8	X9	Y9	Z9	X10	Y10	Z10	X11	Y11	Z11	X12	Y12	Z12	X13	Y13	Z13	X14	Y14	Z14	X15	Y15	Z15	X16	Y16	Z16	X17	Y17	Z17	X18	Y18	Z18	X19	Y19	Z19	X20	Y20	Z20	X21	Y21	Z21	X22	Y22	Z22	X23	Y23	Z23	X24	Y24	Z24	X25	Y25	Z25	X26	Y26	Z26	X27	Y27	Z27	
82	1.3898305084745763	0.29047812075935325	0.5141143843157647	0.9721547141618773	0.26211538877869167	0.5032862575481419	1.457794822409325	0.2613260225027637	0.5469941478222745	1.9195396305748644	0.22648291283455665	0.3806667597256582	1.9516690781897261	0.2885338735257818	0.41789318524920116	1.9760743659070326	0.24837388147803133	0.6487986709991919	2.0106881189755197	0.07187978858581924	0.5508575376427758	0.9568554993431366	0.08078143659967378	0.5377405472115225	1.4585341070688238	0.061916706889183486	0.5622084261918942	1.8885707920263446	0.0684188685022018	0.37964305478417104	1.9462214229515398	0.01332613944964721	0.4252520731779526	1.9616849109994066	0.07170952806130304	0.6060426618282816	1.9477084086926426	0.2375692068350645	0.5252411229563653	0.39706815537937196	0.30098594547431656	0.5082441771560711	0.15951891150702127	0.26142446929535784	0.43656766143879466	0.2668342371296465	0.3923073770357665	0.4934424604602331	0.5152023408499962	0.401507517545193	0.47845905313974035	0.7917344148411465	0.37424409371498935	0.36975801749688225	1.0447592097131277	0.2884517495801199	0.34228300877054685	1.1661119752648723	0.302857673133159	0.3281377251350336	1.1735034396066784	0.3400583852113548	0.3803373326896417	1.195477007036874	0.0666918847786482	0.5785158565078266	0.46301024957163056	0.021338081619764318	0.5419303315934046	0.7384632551999373	0.0011375611920060734	0.4322518169443099	0.9837374890326905	0.056999322286928646	0.3554131246078521	1.0939102349837455	0.02236643956135759	0.32292408793559646	1.0900977248126353	-0.03142680246785551	0.36370738266746494	1.104884350753913
83	1.4067796610169492	0.2891633860894748	0.49680110404150457	0.9745603573977257	0.26147190066110376	0.501932691363957	1.4525799316168233	0.26219790456836595	0.5483396882759509	1.9251578935878282	0.22653568756409811	0.3808085468153846	1.9518633674354362	0.2883708476127172	0.4177080892021073	1.976076308697067	0.24893415390670404	0.6501465097001458	2.0115818317739746	0.07145908768814103	0.5505677425283976	0.9603282192343259	0.07508064805536938	0.5347891239822211	1.4564560437206722	0.06166335817896424	0.5637277006195391	1.8851857008040136	0.06842107845803348	0.3796829860953623	1.946250919655695	0.009783616863567827	0.43807549243061356	1.9663304057520847	0.07582323334931283	0.6113928381174966	1.9461099249161624	0.24559660600476022	0.5377371131049596	0.3985268255131719	0.30164500441393205	0.5085237457128623	0.1597296825573758	0.2654466235956398	0.438366475723344	0.2669029240379778	0.39278190529011164	0.49270753929364464	0.5185716256382626	0.40477153587208764	0.46447907674785394	0.7884868738140767	0.36506630447697286	0.36538144003262635	1.043465845926751	0.27681304843717836	0.3384256926734064	1.1638100392287711	0.2874305885333759	0.3293037751790907	1.1738400914572658	0.3295019633604158	0.3436709504407842	1.1814042653417125	0.06696661726145864	0.5787567719439659	0.46298974602824505	0.0241922505747905	0.5533508217927665	0.741128661990248	0.00875896287835641	0.4372129380603443	0.9771964147065372	0.05690559697602159	0.3564115163480144	1.0902341092073378	0.030963195996046827	0.3139021339490879	1.0861975011790221	-0.024141751392568345	0.36380057116192915	1.1010969077542605
84	1.423728813559322	0.28871969862583274	0.49652745740332327	0.9704541932568311	0.26146249177212916	0.5026880034965696	1.4531567351718775	0.2624381222394492	0.5485102683167865	1.9253016059544725	0.2226701200047133	0.37082535904787817	1.9447677056439687	0.28321414229453645	0.41435121817100284	1.9738562538962576	0.25022339644715125	0.6515266055035288	2.017626737496697	0.06835546193693581	0.5484504813940542	0.9597540894429823	0.07371740527619695	0.5365871798241565	1.4570903108289568	0.06152206499766939	0.5634351006955108	1.8849894920649855	0.06525843965412888	0.36830397849144875	1.9383017876958513	0.009737277601614452	0.437955476730508	1.9662123988733429	0.08069503892359708	0.5950274642189354	1.9359245375328846	0.24608084554383589	0.5385318048025283	0.4021264709680628	0.30574865883772595	0.510223149911928	0.16268553035441619	0.268651106299712	0.42656386902039156	0.2658661075682424	0.39607388715535014	0.47993411335647596	0.5197572006357456	0.4048317488833775	0.46475970633299474	0.7886493724056933	0.3654363773888637	0.36528434910963264	1.0474925778787347	0.27681272629742376	0.33840443174962176	1.1631053930100774	0.2878155182466692	0.3291495697486737	1.170042680275053	0.3151476900259587	0.34999693260164644	1.1905153595162734	0.07458642974876799	0.5917653524571891	0.46452592845800666	0.024340713350881876	0.5538508748316671	0.7447337059523386	0.016309537075428624	0.4510093489046499	0.985732889415575	0.05733745177348782	0.3554357772682617	1.0822195951246825	0.03471170429721343	0.31526019577050257	1.0864108115506306	-0.020556670248932183	0.36440675024618147	1.0974504405967753
85	1.4406779661016949	0.28811467117914796	0.49475361525227335	0.9658780742270239	0.26136545249512655	0.5026315135431785	1.4533634374332982	0.2612713507469258	0.546370919304497	1.9192417402462365	0.22634286658782343	0.38050051033259613	1.9515145744623645	0.2832283042477348	0.41446369854514414	1.9738208007801077	0.24425372433493517	0.6450490376574357	2.0082240712838173	0.07170773722347759	0.5499320325506095	0.9515173731578239	0.07345947841978707	0.5620680835359881	1.4648747520721834	0.06146209210556456	0.5634228206113086	1.8849476673286374	0.06826125921912947	0.37964717493806965	1.9461985708044605	0.01290535691913666	0.42712451769702325	1.9581346911160424	0.08040200571595323	0.5966712180493076	1.9321930491609822	0.2503050664394525	0.5400220125576815	0.4055965824469298	0.3100171380959305	0.5203637680507289	0.16312024199202393	0.27230061177692416	0.43588396809576496	0.26681285766569923	0.39636237598888624	0.480048091305803	0.5198227989127246	0.4048040682492113	0.46468149000074405	0.7923131082939208	0.35603340352225027	0.3529840063595122	1.0393288194017694	0.2680903261883693	0.32733315259574625	1.1554973576506817	0.2754184615543382	0.33855104205146935	1.1774500961843817	0.314499460687652	0.35138757051337655	1.186297317101026	0.07868214109290424	0.5938104907663115	0.46467297737489677	0.028255454235969358	0.5388161739407761	0.7415459898395546	0.016680647964774753	0.4499652947912631	0.9776525574668661	0.06124556407173856	0.3456600686493093	1.0743383229618215	0.042036315904216165	0.3274103558654165	1.0910655203500568	-0.017254578956679815	0.3746645145409348	1.1015155349811907
86	1.4576271186440677	0.29253769438618155	0.48357477700131074	0.9662650167750682	0.2613302622879621	0.5026879526880031	1.4535929841026132	0.26137979480910545	0.5465975557566112	1.9193563357322558	0.22517821342938	0.3786206255503328	1.9463055656976809	0.27954199940752206	0.4043359700897363	1.9665942803616348	0.23939713058682957	0.6317705547911292	1.9994499080117378	0.0758613765000316	0.5533237243668084	0.9531931370822746	0.07678446885784156	0.5645384686006105	1.470386664817217	0.06540256586996239	0.566119752297622	1.8865890344220564	0.06526156234624052	0.3683187081612406	1.9383215384812882	0.01325952776657265	0.42506339341366356	1.9615561728205466	0.08070639990312999	0.5947342716105763	1.9358159698215711	0.25046659755323525	0.5399679922528129	0.40566713255734593	0.31701608674965576	0.5093359699595773	0.16282566703798046	0.2762217687081014	0.43716212547221617	0.270325075286685	0.39649411371471543	0.4799055571340447	0.5231352006787815	0.4054836271040209	0.4645995541914338	0.7960616696482457	0.3520963603728528	0.3665485636743921	1.040604264312945	0.25618120110172005	0.3267920493074913	1.15518201258032	0.2706866150329614	0.33600272831796973	1.1763232579347416	0.3034524278094035	0.3526727188870007	1.1869619121546404	0.07903411821938473	0.5940042355084735	0.46160943084598083	0.031059178224749906	0.5502853013100536	0.7473256207029999	0.02091066604691616	0.45266026616881677	0.9784300869793868	0.06820950972702207	0.35991482644482875	1.067676771324084	0.04935652164546309	0.34108873459572814	1.092565559935093	-0.012274785684510212	0.36515130041908717	1.0981127337409342
